<mxfile host="Electron" modified="2024-06-16T16:42:56.751Z" agent="Mozilla/5.0 (Macintosh; Intel Mac OS X 10_15_7) AppleWebKit/537.36 (KHTML, like Gecko) draw.io/24.4.8 Chrome/124.0.6367.207 Electron/30.0.6 Safari/537.36" etag="43P-LUcuILRSBDpaj8dv" version="24.4.8" type="device">
  <diagram name="Page-1" id="HmVMKs40UP6jnucNvgLR">
    <mxGraphModel dx="953" dy="409" grid="1" gridSize="10" guides="1" tooltips="1" connect="1" arrows="1" fold="1" page="1" pageScale="1" pageWidth="1100" pageHeight="850" math="0" shadow="0">
      <root>
        <mxCell id="0" />
        <mxCell id="1" parent="0" />
        <mxCell id="M-3Tk0NN15-qeTIPXWz9-15" value="&lt;b&gt;&lt;font style=&quot;font-size: 14px;&quot;&gt;Renderer&lt;/font&gt;&lt;/b&gt;" style="rounded=1;whiteSpace=wrap;html=1;fillColor=none;arcSize=3;verticalAlign=top;" parent="1" vertex="1">
          <mxGeometry x="40" y="40" width="600" height="250" as="geometry" />
        </mxCell>
        <mxCell id="M-3Tk0NN15-qeTIPXWz9-1" value="IRenderFeature 1" style="rounded=0;whiteSpace=wrap;html=1;fillColor=#e1d5e7;strokeColor=#9673a6;" parent="1" vertex="1">
          <mxGeometry x="160" y="80" width="120" height="40" as="geometry" />
        </mxCell>
        <mxCell id="M-3Tk0NN15-qeTIPXWz9-3" value="IRenderFeature i" style="rounded=0;whiteSpace=wrap;html=1;fillColor=#e1d5e7;strokeColor=#9673a6;" parent="1" vertex="1">
          <mxGeometry x="160" y="160" width="120" height="40" as="geometry" />
        </mxCell>
        <mxCell id="M-3Tk0NN15-qeTIPXWz9-4" value="..." style="text;html=1;align=center;verticalAlign=middle;whiteSpace=wrap;rounded=0;rotation=90;" parent="1" vertex="1">
          <mxGeometry x="205" y="125" width="40" height="30" as="geometry" />
        </mxCell>
        <mxCell id="M-3Tk0NN15-qeTIPXWz9-7" value="IRenderFeature N" style="rounded=0;whiteSpace=wrap;html=1;fillColor=#e1d5e7;strokeColor=#9673a6;" parent="1" vertex="1">
          <mxGeometry x="160" y="240" width="120" height="40" as="geometry" />
        </mxCell>
        <mxCell id="M-3Tk0NN15-qeTIPXWz9-8" value="..." style="text;html=1;align=center;verticalAlign=middle;whiteSpace=wrap;rounded=0;rotation=90;" parent="1" vertex="1">
          <mxGeometry x="203.75" y="203.75" width="42.5" height="30" as="geometry" />
        </mxCell>
        <mxCell id="M-3Tk0NN15-qeTIPXWz9-10" value="Frame Graph Jobs" style="shape=cube;whiteSpace=wrap;html=1;boundedLbl=1;backgroundOutline=1;darkOpacity=0.05;darkOpacity2=0.1;size=10;direction=south;fontFamily=Helvetica;" parent="1" vertex="1">
          <mxGeometry x="350" y="120" width="100" height="50" as="geometry" />
        </mxCell>
        <mxCell id="M-3Tk0NN15-qeTIPXWz9-11" style="edgeStyle=orthogonalEdgeStyle;rounded=0;orthogonalLoop=1;jettySize=auto;html=1;exitX=1;exitY=0.5;exitDx=0;exitDy=0;entryX=0;entryY=0;entryDx=30;entryDy=100;entryPerimeter=0;" parent="1" source="M-3Tk0NN15-qeTIPXWz9-3" target="M-3Tk0NN15-qeTIPXWz9-10" edge="1">
          <mxGeometry relative="1" as="geometry" />
        </mxCell>
        <mxCell id="M-3Tk0NN15-qeTIPXWz9-12" value="ECS Data Collectors" style="shape=cube;whiteSpace=wrap;html=1;boundedLbl=1;backgroundOutline=1;darkOpacity=0.05;darkOpacity2=0.1;size=10;direction=south;fontFamily=Helvetica;" parent="1" vertex="1">
          <mxGeometry x="350" y="190" width="100" height="50" as="geometry" />
        </mxCell>
        <mxCell id="M-3Tk0NN15-qeTIPXWz9-13" style="edgeStyle=orthogonalEdgeStyle;rounded=0;orthogonalLoop=1;jettySize=auto;html=1;exitX=1;exitY=0.5;exitDx=0;exitDy=0;entryX=0;entryY=0;entryDx=30;entryDy=100;entryPerimeter=0;" parent="1" source="M-3Tk0NN15-qeTIPXWz9-3" target="M-3Tk0NN15-qeTIPXWz9-12" edge="1">
          <mxGeometry relative="1" as="geometry" />
        </mxCell>
        <mxCell id="M-3Tk0NN15-qeTIPXWz9-14" value="Context" style="shape=cylinder3;whiteSpace=wrap;html=1;boundedLbl=1;backgroundOutline=1;size=9.181818181818159;fillColor=#f5f5f5;fontColor=#333333;strokeColor=#666666;" parent="1" vertex="1">
          <mxGeometry x="50" y="140" width="60" height="80" as="geometry" />
        </mxCell>
        <mxCell id="M-3Tk0NN15-qeTIPXWz9-16" style="edgeStyle=orthogonalEdgeStyle;rounded=0;orthogonalLoop=1;jettySize=auto;html=1;exitX=0;exitY=0.5;exitDx=0;exitDy=0;entryX=1;entryY=0.5;entryDx=0;entryDy=0;entryPerimeter=0;startArrow=classic;startFill=1;" parent="1" source="M-3Tk0NN15-qeTIPXWz9-3" target="M-3Tk0NN15-qeTIPXWz9-14" edge="1">
          <mxGeometry relative="1" as="geometry" />
        </mxCell>
        <mxCell id="M-3Tk0NN15-qeTIPXWz9-17" style="edgeStyle=orthogonalEdgeStyle;rounded=0;orthogonalLoop=1;jettySize=auto;html=1;exitX=0;exitY=0.5;exitDx=0;exitDy=0;entryX=0.5;entryY=0.125;entryDx=0;entryDy=0;entryPerimeter=0;startArrow=classic;startFill=1;" parent="1" source="M-3Tk0NN15-qeTIPXWz9-1" target="M-3Tk0NN15-qeTIPXWz9-14" edge="1">
          <mxGeometry relative="1" as="geometry" />
        </mxCell>
        <mxCell id="M-3Tk0NN15-qeTIPXWz9-18" style="edgeStyle=orthogonalEdgeStyle;rounded=0;orthogonalLoop=1;jettySize=auto;html=1;exitX=0;exitY=0.5;exitDx=0;exitDy=0;entryX=0.5;entryY=1;entryDx=0;entryDy=0;entryPerimeter=0;startArrow=classic;startFill=1;" parent="1" source="M-3Tk0NN15-qeTIPXWz9-7" target="M-3Tk0NN15-qeTIPXWz9-14" edge="1">
          <mxGeometry relative="1" as="geometry" />
        </mxCell>
        <mxCell id="M-3Tk0NN15-qeTIPXWz9-19" value="Frame Graph" style="rounded=1;whiteSpace=wrap;html=1;fillColor=#fff2cc;strokeColor=#d6b656;" parent="1" vertex="1">
          <mxGeometry x="510" y="120" width="90" height="50" as="geometry" />
        </mxCell>
        <mxCell id="M-3Tk0NN15-qeTIPXWz9-20" value="ECS System Subgraph" style="rounded=1;whiteSpace=wrap;html=1;fillColor=#fff2cc;strokeColor=#d6b656;" parent="1" vertex="1">
          <mxGeometry x="510" y="190" width="90" height="50" as="geometry" />
        </mxCell>
        <mxCell id="M-3Tk0NN15-qeTIPXWz9-21" value="" style="shape=curlyBracket;whiteSpace=wrap;html=1;rounded=1;flipH=1;labelPosition=right;verticalLabelPosition=middle;align=left;verticalAlign=middle;strokeWidth=2;" parent="1" vertex="1">
          <mxGeometry x="470" y="80" width="30" height="200" as="geometry" />
        </mxCell>
      </root>
    </mxGraphModel>
  </diagram>
</mxfile>
